<?xml version="1.0" encoding="utf-8"?>
<!-- Generator: Adobe Illustrator 15.1.0, SVG Export Plug-In . SVG Version: 6.00 Build 0)  -->
<!DOCTYPE svg PUBLIC "-//W3C//DTD SVG 1.1//EN" "http://www.w3.org/Graphics/SVG/1.1/DTD/svg11.dtd">
<svg version="1.1" id="Layer_2" xmlns="http://www.w3.org/2000/svg" xmlns:xlink="http://www.w3.org/1999/xlink" x="0px" y="0px"
	 width="75px" height="75px" viewBox="0 0 75 75" enable-background="new 0 0 75 75" xml:space="preserve">
<g>
	<g id="XMLID_4_">
		<g>
			<path fill="#01A351" d="M75,54.932c0,0.142,0,0.283,0,0.426c-4.691,0-9.383,0-14.074,0c-0.267-2.155,0.213-4.378-0.213-6.113
				c-0.612-2.49-3.628-2.719-5.759-3.768c0.215-1.018,0.603-2.607,0.284-3.768c-0.071-0.263-0.402-0.454-0.639-0.781
				c-0.648-0.894-1.021-2.073-1.209-3.199c-1.067-0.586-1.695-1.73-1.492-3.127c0.079-0.55,0.552-0.895,0.568-1.28
				c0.026-0.618-0.317-1.399-0.427-2.132c-0.423-2.857-0.128-5.73,1.493-7.393c1.948-1.999,7.656-2.909,9.525-0.427
				c3.672,0.344,4.17,4.614,3.411,8.246c-0.115,0.555-0.521,1.26-0.497,1.706c0.03,0.546,0.596,0.867,0.64,1.493
				c0.099,1.383-0.621,2.399-1.493,2.915c-0.233,0.932-0.384,1.761-0.853,2.63c-0.288,0.535-0.876,0.927-0.995,1.422
				c-0.209,0.866-0.182,2.615,0.071,3.411c0.331,1.045,1.872,1.839,2.985,2.347C70.178,49.293,74.567,50.292,75,54.932z"/>
			<path fill="#01A351" d="M4.295,47.699c0.11-0.093,0.591-0.356,0.71-0.468c0.007,0.031,0.013,0.062,0.02,0.092
				c0.36,1.758,0.6,3.632,0.8,5.472c0.093,0.851,6.267,1.705,6.336,2.562H0v-0.426C0.233,50.292,2.228,49.455,4.295,47.699z"/>
			<path fill="#92C93B" d="M58.589,50.6c-0.034,2.331,0.126,4.471,0.07,6.824c-6.231,0-12.463,0-18.695,0
				c-0.489-2.199-1.073-4.866-1.634-7.251c-0.189-0.806-0.605-1.718-0.568-2.346c0.06-1.035,1.051-1.654,1.208-2.63
				c-0.7-0.484-1.497-0.874-2.275-1.279c-0.968,0.381-1.824,0.877-2.772,1.279c0.186,0.853,1.087,1.56,1.208,2.488
				c0.08,0.618-0.229,1.655-0.356,2.487c-0.352,2.312-0.755,5.029-1.065,7.251c-6.517,0-13.032,0-19.549,0
				c0.283-2.428-0.355-4.857,0.143-6.824c0.383-1.515,2.245-2.168,3.768-2.701c2.783-0.975,5.957-2.664,8.458-3.483
				c0.611-0.199,1.324-0.207,1.849-0.497c1.073-0.595,1.308-2.138,1.848-3.057c0.25-0.2,0.804-0.098,0.995-0.356
				c-0.146-0.8-0.973-1.179-1.208-2.061c-0.269-1.005-0.133-2.183-0.356-3.412c-0.449-0.167-1.08-0.314-1.35-0.64
				c-0.617-0.741-1.098-3.443-0.924-4.763c0.075-0.571,0.542-1.031,0.569-1.564c0.032-0.631-0.27-1.288-0.355-1.919
				c-0.097-0.71-0.149-1.462-0.142-2.133c0.052-5.468,3.992-6.782,8.53-7.535c0.498,0,0.995,0,1.493,0
				c1.251,0.253,2.136,0.379,3.057,0.924c0.463,0.275,0.786,0.884,1.279,1.066c0.404,0.149,0.925-0.002,1.351,0.213
				c0.842,0.426,1.373,2.179,1.493,3.554c0.16,1.836-0.677,4.03-0.213,5.829c0.121,0.472,0.48,0.889,0.639,1.421
				c0.382,1.281,0.176,3.511-0.568,4.621c-0.47,0.701-1.269,0.714-1.563,1.279c-0.414,0.79-0.144,1.979-0.427,2.843
				c-0.33,1.006-1.298,1.373-1.209,2.347c0.339,0.184,0.911,0.132,1.28,0.284c0.445,1.166,1.011,2.212,1.777,3.057
				c2.576,0.578,4.599,1.618,7.179,2.701c1.882,0.789,3.781,1.26,5.261,2.062C57.659,49.139,58.13,49.776,58.589,50.6z"/>
			<path fill="#01A351" d="M21.621,26c-1.419-1.273-3.306-1.823-5.545-1.706c-5.409,0.284-8.269,3.196-8.814,8.458
				c-0.349,3.368-0.381,7.441,1.919,9.312c0.967,0.1,1.928,0.205,2.772,0.426c0.054,4.688-6.952,2.91-8.388,6.185
				c-0.209,0.477-0.372,1.392-0.427,2.36v1.398c0.052,0.803,0.206,1.505,0.498,1.857c0.6,0.723,2.799,0.864,3.98,1.066h4.536
				c0.124-2.071-0.315-4.033,0.014-5.829c0.156-0.854,0.888-1.625,1.563-2.132c1.826-1.371,4.866-1.729,6.895-2.915
				c-0.28-0.573-0.578-1.128-0.568-1.991c1-0.255,2.173-0.337,3.199-0.568C26.786,37.625,25.245,29.252,21.621,26z"/>
		</g>
		<g>
		</g>
	</g>
</g>
</svg>
