<?xml version="1.0" encoding="utf-8"?>
<!-- Generator: Adobe Illustrator 15.1.0, SVG Export Plug-In . SVG Version: 6.00 Build 0)  -->
<!DOCTYPE svg PUBLIC "-//W3C//DTD SVG 1.1//EN" "http://www.w3.org/Graphics/SVG/1.1/DTD/svg11.dtd">
<svg version="1.1" id="Layer_3" xmlns="http://www.w3.org/2000/svg" xmlns:xlink="http://www.w3.org/1999/xlink" x="0px" y="0px"
	 width="75px" height="75px" viewBox="60 12.5 75 75" enable-background="new 60 12.5 75 75" xml:space="preserve">
<path fill="#92C93B" d="M128.843,59.235v1.068c-0.483,1.597-2.77,2.297-2.935,4.133c-0.168,1.869,1.621,3.328,1.467,5.203
	c-0.196,2.382-3.378,3.147-3.867,5.201c-0.291,1.217,0.25,2.501,0,3.601c-0.389,1.722-3.55,4.376-5.335,5.068
	c-1.484,0.575-3.557,0.455-5.335,0.799h-7.603c-9.383-0.265-17.522-1.771-25.475-3.468V52.967c0.67,0.073,1.872,0.003,2.533-0.267
	c3.7-1.506,6.422-7.703,8.137-11.469c0.717-1.576,1.227-3.33,2-4.668c1.36-2.349,4.271-3.281,5.869-5.602
	c1.898-2.757,2.613-6.929,3.066-11.07c0.145-1.295-0.07-3.924,1.201-3.867h1.6c4.771,1.194,7.163,4.779,6.669,11.203
	c-0.464,6.024-5.76,9.936-4.936,15.872c5.814,0.662,13.493-1.053,18.272,0.8c2.683,1.041,3.458,3.391,4.667,5.869v1.466
	c-0.559,1.356-2.169,2.012-2.268,3.47c-0.114,1.725,1.821,2.892,2.268,4.532H128.843z"/>
<path fill="#01A351" d="M79.204,52.301c1.079,1.077,0.801,3.85,0.801,6.802V74.04c0,1.968,0.318,6.449-0.534,7.602
	c-1.099,1.487-4.151,1.2-6.67,1.2c-2.621,0-5.361,0.285-6.267-1.6c-0.694-1.441-0.268-4.818-0.268-6.935V60.171
	c0-3.32-0.899-7.817,2.268-8.537C70.765,51.128,77.863,50.961,79.204,52.301z"/>
</svg>
