<?xml version="1.0" encoding="utf-8"?>
<!-- Generator: Adobe Illustrator 15.1.0, SVG Export Plug-In . SVG Version: 6.00 Build 0)  -->
<!DOCTYPE svg PUBLIC "-//W3C//DTD SVG 1.1//EN" "http://www.w3.org/Graphics/SVG/1.1/DTD/svg11.dtd">
<svg version="1.1" id="Layer_3" xmlns="http://www.w3.org/2000/svg" xmlns:xlink="http://www.w3.org/1999/xlink" x="0px" y="0px"
	 width="75px" height="75px" viewBox="0 0 75 75" enable-background="new 0 0 75 75" xml:space="preserve">
<circle fill="#01A351" cx="37.5" cy="37.16" r="31.578"/>
<g>
	<path fill="#FFFFFF" d="M33.751,45.141c0.795,0.847,1.784,1.386,2.964,1.617v-8.047c-0.128-0.051-0.302-0.109-0.52-0.174
		c-0.218-0.062-0.456-0.121-0.712-0.172c-0.95-0.257-1.886-0.559-2.811-0.905c-0.924-0.347-1.751-0.809-2.483-1.386
		c-0.732-0.578-1.316-1.296-1.752-2.156c-0.437-0.86-0.654-1.931-0.654-3.215c0-1.309,0.25-2.464,0.75-3.465
		s1.161-1.842,1.983-2.522c0.821-0.68,1.771-1.206,2.849-1.579c1.078-0.372,2.195-0.597,3.35-0.673V19.5h2.271v2.965
		c1.155,0.128,2.239,0.379,3.253,0.75c1.014,0.373,1.906,0.886,2.676,1.54c0.771,0.654,1.399,1.47,1.887,2.445
		c0.487,0.976,0.771,2.13,0.847,3.465h-5.467c-0.025-1.026-0.347-1.899-0.962-2.618c-0.616-0.718-1.361-1.078-2.233-1.078v6.814
		c0.308,0.077,0.622,0.154,0.943,0.231c0.32,0.077,0.66,0.167,1.021,0.27c1.898,0.514,3.361,1.149,4.389,1.906
		c1.026,0.757,1.783,1.547,2.271,2.367c0.487,0.822,0.776,1.643,0.866,2.464c0.09,0.822,0.135,1.554,0.135,2.195
		c0,0.564-0.142,1.276-0.424,2.137s-0.789,1.7-1.521,2.521s-1.713,1.553-2.945,2.194c-1.231,0.642-2.811,1.026-4.735,1.155v3.272
		h-2.271v-3.272c-2.875-0.206-5.121-1.091-6.737-2.656c-1.617-1.565-2.554-3.863-2.811-6.892h5.428
		C32.571,43.139,32.956,44.294,33.751,45.141z M35.445,27.161c-0.411,0.129-0.783,0.327-1.116,0.597
		c-0.334,0.27-0.597,0.604-0.79,1.001c-0.192,0.398-0.289,0.866-0.289,1.405c0,0.847,0.27,1.501,0.809,1.963
		s1.424,0.834,2.656,1.117v-6.275C36.279,26.969,35.855,27.033,35.445,27.161z M40.431,46.431c0.501-0.167,0.95-0.404,1.348-0.713
		c0.397-0.308,0.726-0.687,0.982-1.136c0.256-0.448,0.385-0.981,0.385-1.598c0-1.001-0.314-1.752-0.943-2.252
		s-1.7-0.956-3.215-1.367v7.393C39.449,46.706,39.931,46.598,40.431,46.431z"/>
</g>
</svg>
