<?xml version="1.0" encoding="utf-8"?>
<!-- Generator: Adobe Illustrator 15.1.0, SVG Export Plug-In . SVG Version: 6.00 Build 0)  -->
<!DOCTYPE svg PUBLIC "-//W3C//DTD SVG 1.1//EN" "http://www.w3.org/Graphics/SVG/1.1/DTD/svg11.dtd">
<svg version="1.1" id="Layer_3" xmlns="http://www.w3.org/2000/svg" xmlns:xlink="http://www.w3.org/1999/xlink" x="0px" y="0px"
	 width="75px" height="75px" viewBox="0 0 75 75" enable-background="new 0 0 75 75" xml:space="preserve">
<rect x="10.536" y="17.487" fill="#92C93B" width="54.375" height="46.337"/>
<rect x="10.536" y="17.487" fill="#01A351" width="54.375" height="17.097"/>
<path fill="#FFFFFF" d="M30.997,25.09c0,1.911-1.55,3.461-3.461,3.461l0,0c-1.912,0-3.461-1.55-3.461-3.461V12.752
	c0-1.912,1.55-3.461,3.461-3.461l0,0c1.912,0,3.461,1.549,3.461,3.461V25.09z"/>
<path fill="#FFFFFF" d="M52.033,25.09c0,1.911-1.55,3.461-3.462,3.461l0,0c-1.911,0-3.461-1.55-3.461-3.461V12.752
	c0-1.912,1.55-3.461,3.461-3.461l0,0c1.912,0,3.462,1.549,3.462,3.461V25.09z"/>
<g>
	<path fill="#FFFFFF" d="M30.836,47.021c0.432-0.034,0.835-0.129,1.21-0.287c0.374-0.158,0.681-0.387,0.922-0.686
		c0.241-0.3,0.361-0.697,0.361-1.197c0-0.748-0.25-1.322-0.748-1.721s-1.072-0.599-1.72-0.599c-0.897,0-1.575,0.296-2.033,0.886
		c-0.457,0.591-0.677,1.334-0.66,2.231h-3.366c0.033-0.897,0.195-1.717,0.486-2.455c0.291-0.74,0.698-1.376,1.222-1.909
		c0.523-0.53,1.15-0.942,1.882-1.232c0.731-0.292,1.546-0.438,2.443-0.438c0.699,0,1.396,0.104,2.095,0.312s1.325,0.52,1.882,0.935
		c0.557,0.415,1.01,0.923,1.359,1.521c0.35,0.598,0.523,1.287,0.523,2.069c0,0.848-0.203,1.596-0.61,2.244
		c-0.407,0.647-1.018,1.089-1.833,1.32v0.051c0.964,0.216,1.72,0.682,2.27,1.396c0.548,0.716,0.822,1.571,0.822,2.569
		c0,0.914-0.179,1.729-0.536,2.443c-0.358,0.715-0.835,1.312-1.434,1.795s-1.289,0.848-2.069,1.097
		c-0.782,0.25-1.596,0.375-2.443,0.375c-0.981,0-1.875-0.142-2.681-0.425c-0.807-0.282-1.492-0.693-2.057-1.234
		c-0.565-0.539-1.002-1.2-1.31-1.982c-0.307-0.781-0.453-1.678-0.437-2.692h3.367c0.016,0.466,0.091,0.91,0.224,1.334
		c0.133,0.425,0.324,0.79,0.573,1.097c0.25,0.309,0.561,0.554,0.935,0.736c0.375,0.183,0.819,0.274,1.334,0.274
		c0.798,0,1.472-0.246,2.02-0.735c0.549-0.49,0.823-1.16,0.823-2.008c0-0.664-0.129-1.172-0.387-1.521
		c-0.258-0.349-0.586-0.602-0.984-0.76c-0.399-0.157-0.835-0.249-1.309-0.274c-0.474-0.024-0.927-0.038-1.359-0.038v-2.492
		C29.997,47.054,30.404,47.054,30.836,47.021z"/>
	<path fill="#FFFFFF" d="M46.239,57.417V46.098h-4.389V43.43c0.614,0.017,1.209-0.029,1.783-0.137
		c0.573-0.108,1.089-0.299,1.545-0.574c0.458-0.274,0.844-0.636,1.16-1.085c0.314-0.448,0.523-1.004,0.623-1.67h2.817v17.453H46.239
		z"/>
</g>
</svg>
