<?xml version="1.0" encoding="utf-8"?>
<!-- Generator: Adobe Illustrator 15.1.0, SVG Export Plug-In . SVG Version: 6.00 Build 0)  -->
<!DOCTYPE svg PUBLIC "-//W3C//DTD SVG 1.1//EN" "http://www.w3.org/Graphics/SVG/1.1/DTD/svg11.dtd">
<svg version="1.1" id="Layer_3" xmlns="http://www.w3.org/2000/svg" xmlns:xlink="http://www.w3.org/1999/xlink" x="0px" y="0px"
	 width="75px" height="75px" viewBox="60 12.5 75 75" enable-background="new 60 12.5 75 75" xml:space="preserve">
<polyline fill="#01A351" points="75.296,78.5 64.6,36.706 70.824,38.543 75.296,33.72 "/>
<g>
	<polyline fill="#92C93B" points="125.456,19.521 119.145,23.319 114.687,19.422 109.333,23.128 104.875,19.327 99.522,23.081 
		95.065,19.303 89.712,23.069 85.253,19.297 79.985,23.064 75.164,18.917 75.164,78.5 125.456,78.5 125.456,19.941 	"/>
</g>
<path fill="#FFFFFF" d="M114.434,44.054c0,1.141-0.926,2.066-2.067,2.066H87.565c-1.142,0-2.067-0.925-2.067-2.066l0,0
	c0-1.142,0.925-2.067,2.067-2.067h24.801C113.508,41.987,114.434,42.913,114.434,44.054L114.434,44.054z"/>
<path fill="#FFFFFF" d="M114.434,54.008c0,1.142-0.926,2.066-2.067,2.066H87.565c-1.142,0-2.067-0.925-2.067-2.066l0,0
	c0-1.142,0.925-2.067,2.067-2.067h24.801C113.508,51.94,114.434,52.866,114.434,54.008L114.434,54.008z"/>
<path fill="#FFFFFF" d="M114.434,64.673c0,1.142-0.926,2.066-2.067,2.066H87.565c-1.142,0-2.067-0.925-2.067-2.066l0,0
	c0-1.142,0.925-2.067,2.067-2.067h24.801C113.508,62.605,114.434,63.531,114.434,64.673L114.434,64.673z"/>
</svg>
